font.ufo
<glyph name="L" format="1">
	<unicode hex="004C"/>
	<advance width="518"/>
	<outline>
		<contour>
			<point x="77" y="0" type="line"/>
			<point x="482" y="0" type="line"/>
			<point x="482" y="124" type="line"/>
			<point x="224" y="124" type="line"/>
			<point x="224" y="652" type="line"/>
			<point x="77" y="652" type="line"/>
		</contour>
		<contour>
			<point name="aboveUC" x="154" y="672" type="move"/>
		</contour>
		<contour>
			<point name="center" x="169" y="288" type="move"/>
		</contour>
		<contour>
			<point name="baseLC" x="279" y="0" type="move"/>
		</contour>
		<contour>
			<point name="belowLC" x="290" y="-20" type="move"/>
		</contour>
	</outline>
</glyph>
<glyph name="i" format="1">
	<unicode hex="0069"/>
	<advance width="276"/>
	<outline>
		<contour>
			<point x="65" y="0" type="line"/>
			<point x="212" y="0" type="line"/>
			<point x="212" y="496" type="line"/>
			<point x="65" y="496" type="line"/>
		</contour>
		<contour>
			<point x="138" y="569" type="curve" smooth="yes"/>
			<point x="186" y="569"/>
			<point x="220" y="601"/>
			<point x="220" y="646" type="curve" smooth="yes"/>
			<point x="220" y="691"/>
			<point x="186" y="723"/>
			<point x="138" y="723" type="curve" smooth="yes"/>
			<point x="91" y="723"/>
			<point x="57" y="691"/>
			<point x="57" y="646" type="curve" smooth="yes"/>
			<point x="57" y="601"/>
			<point x="91" y="569"/>
		</contour>
		<contour>
			<point name="aboveUC" x="138" y="690" type="move"/>
		</contour>
		<contour>
			<point name="ogonekLC" x="179" y="0" type="move"/>
		</contour>
		<contour>
			<point name="baseLC" x="138" y="0" type="move"/>
		</contour>
		<contour>
			<point name="belowLC" x="138" y="-20" type="move"/>
		</contour>
	</outline>
</glyph>
<glyph name="Odieresis" format="1">
	<unicode hex="00D6"/>
	<advance width="684"/>
	<outline>
		<component base="O"/>
		<component base="dieresiscmb.cap" xOffset="342"/>
		<contour>
			<point name="ogonekUC" x="342" y="0" type="move"/>
		</contour>
	</outline>
</glyph>
<glyph name="Oslash" format="1">
	<unicode hex="00D8"/>
	<advance width="684"/>
	<outline>
		<contour>
			<point x="116" y="-41" type="line"/>
			<point x="660" y="634" type="line"/>
			<point x="584" y="693" type="line"/>
			<point x="40" y="17" type="line"/>
		</contour>
		<component base="O" xOffset="1"/>
		<contour>
			<point name="aboveUC" x="343" y="672" type="move"/>
		</contour>
		<contour>
			<point name="baseLC" x="342" y="0" type="move"/>
		</contour>
	</outline>
</glyph>
<glyph name="eacute" format="1">
	<unicode hex="00E9"/>
	<advance width="518"/>
	<outline>
		<component base="e"/>
		<component base="acutecmb" xOffset="276"/>
		<contour>
			<point name="ogonekLC" x="356" y="0" type="move"/>
		</contour>
	</outline>
</glyph>
<glyph name="lmiddletilde" format="1">
	<unicode hex="026B"/>
	<advance width="286"/>
	<outline>
		<component base="l"/>
		<component base="tildeoverlaycmb" xOffset="139" yOffset="48"/>
		<contour>
			<point name="aboveUC" x="138" y="730" type="move"/>
		</contour>
		<contour>
			<point name="aboveLC" x="149" y="557" type="move"/>
		</contour>
		<contour>
			<point name="belowLC" x="164" y="-20" type="move"/>
		</contour>
	</outline>
</glyph>
<glyph name="tesh" format="1">
	<unicode hex="02A7"/>
	<advance width="620"/>
	<outline>
		<contour>
			<point x="256" y="-12" type="curve" smooth="yes"/>
			<point x="304" y="-12"/>
			<point x="340" y="-2"/>
			<point x="366" y="6" type="curve"/>
			<point x="343" y="113" type="line"/>
			<point x="330" y="108"/>
			<point x="312" y="103"/>
			<point x="296" y="103" type="curve" smooth="yes"/>
			<point x="257" y="103"/>
			<point x="232" y="126"/>
			<point x="232" y="182" type="curve" smooth="yes"/>
			<point x="232" y="381" type="line"/>
			<point x="351" y="381" type="line"/>
			<point x="351" y="496" type="line"/>
			<point x="232" y="496" type="line"/>
			<point x="232" y="628" type="line"/>
			<point x="110" y="628" type="line"/>
			<point x="93" y="496" type="line"/>
			<point x="17" y="490" type="line"/>
			<point x="17" y="381" type="line"/>
			<point x="85" y="381" type="line"/>
			<point x="85" y="180" type="line" smooth="yes"/>
			<point x="85" y="65"/>
			<point x="133" y="-12"/>
		</contour>
		<contour>
			<point x="417" y="-196" type="curve" smooth="yes"/>
			<point x="552" y="-196"/>
			<point x="594" y="-105"/>
			<point x="594" y="3" type="curve" smooth="yes"/>
			<point x="594" y="518" type="line" smooth="yes"/>
			<point x="594" y="573"/>
			<point x="610" y="598"/>
			<point x="657" y="598" type="curve" smooth="yes"/>
			<point x="667" y="598"/>
			<point x="676" y="595"/>
			<point x="686" y="591" type="curve"/>
			<point x="712" y="699" type="line"/>
			<point x="693" y="707"/>
			<point x="671" y="713"/>
			<point x="634" y="713" type="curve" smooth="yes"/>
			<point x="491" y="713"/>
			<point x="447" y="622"/>
			<point x="447" y="513" type="curve" smooth="yes"/>
			<point x="447" y="-1" type="line"/>
			<point x="447" y="-56"/>
			<point x="434" y="-81"/>
			<point x="394" y="-81" type="curve" smooth="yes"/>
			<point x="381" y="-81"/>
			<point x="369" y="-78"/>
			<point x="355" y="-74" type="curve"/>
			<point x="329" y="-182" type="line"/>
			<point x="350" y="-190"/>
			<point x="376" y="-196"/>
		</contour>
		<contour>
			<point name="aboveUC" x="310" y="730" type="move"/>
		</contour>
		<contour>
			<point name="belowLC" x="310" y="-20" type="move"/>
		</contour>
	</outline>
</glyph>
<glyph name="heAlef" format="1">
	<unicode hex="05D0"/>
	<advance width="700"/>
	<outline>
		<contour>
			<point x="517" y="170" type="line"/>
			<point x="601" y="283"/>
			<point x="643" y="366"/>
			<point x="643" y="460" type="curve" smooth="yes"/>
			<point x="643" y="544"/>
			<point x="590" y="576"/>
			<point x="476" y="576" type="curve" smooth="yes"/>
			<point x="456" y="576"/>
			<point x="432" y="576"/>
			<point x="400" y="570" type="curve"/>
			<point x="396" y="421" type="line"/>
			<point x="430" y="427"/>
			<point x="452" y="427"/>
			<point x="472" y="427" type="curve" smooth="yes"/>
			<point x="502" y="427"/>
			<point x="516" y="417"/>
			<point x="516" y="388" type="curve" smooth="yes"/>
			<point x="516" y="343"/>
			<point x="479" y="291"/>
			<point x="420" y="219" type="curve"/>
		</contour>
		<contour>
			<point x="84" y="0" type="curve"/>
			<point x="214" y="0" type="line"/>
			<point x="212" y="29"/>
			<point x="210" y="57"/>
			<point x="210" y="82" type="curve" smooth="yes"/>
			<point x="210" y="217"/>
			<point x="233" y="305"/>
			<point x="280" y="390" type="curve"/>
			<point x="168" y="417" type="line"/>
			<point x="112" y="333"/>
			<point x="82" y="239"/>
			<point x="82" y="84" type="curve" smooth="yes"/>
			<point x="82" y="56"/>
			<point x="82" y="29"/>
		</contour>
		<contour>
			<point x="546" y="-12" type="curve"/>
			<point x="658" y="66" type="line"/>
			<point x="490" y="218"/>
			<point x="300" y="417"/>
			<point x="187" y="576" type="curve"/>
			<point x="75" y="498" type="line"/>
			<point x="190" y="333"/>
			<point x="382" y="134"/>
		</contour>
	</outline>
</glyph>
<glyph name="heBet" format="1">
	<unicode hex="05D1"/>
	<advance width="601"/>
	<outline>
		<contour>
			<point x="512" y="20" type="line"/>
			<point x="512" y="362" type="line"/>
			<point x="512" y="508"/>
			<point x="438" y="564"/>
			<point x="329" y="564" type="curve"/>
			<point x="96" y="564" type="line"/>
			<point x="66" y="417" type="line"/>
			<point x="249" y="417" type="line"/>
			<point x="334" y="417"/>
			<point x="385" y="384"/>
			<point x="385" y="269" type="curve"/>
			<point x="385" y="20" type="line"/>
		</contour>
		<contour>
			<point x="552" y="0" type="curve"/>
			<point x="583" y="147" type="line"/>
			<point x="394" y="147"/>
			<point x="169" y="143"/>
			<point x="70" y="135" type="curve"/>
			<point x="40" y="-12" type="line"/>
			<point x="138" y="-3"/>
			<point x="379" y="0"/>
		</contour>
	</outline>
</glyph>
<glyph name="heGimel" format="1">
	<unicode hex="05D2"/>
	<advance width="444"/>
	<outline>
		<contour>
			<point x="261" y="0" type="line"/>
			<point x="388" y="0" type="line"/>
			<point x="352" y="428" type="line"/>
			<point x="346" y="506"/>
			<point x="325" y="548"/>
			<point x="257" y="558" type="curve" smooth="yes"/>
			<point x="124" y="576" type="line"/>
			<point x="93" y="429" type="line"/>
			<point x="173" y="419" type="line" smooth="yes"/>
			<point x="225" y="413"/>
			<point x="231" y="403"/>
			<point x="237" y="327" type="curve"/>
		</contour>
		<contour>
			<point x="45" y="-8" type="line"/>
			<point x="164" y="-2"/>
			<point x="260" y="81"/>
			<point x="266" y="158" type="curve"/>
			<point x="247" y="260" type="line"/>
			<point x="235" y="190"/>
			<point x="161" y="153"/>
			<point x="70" y="147" type="curve"/>
		</contour>
	</outline>
</glyph>
<glyph name="heDalet" format="1">
	<unicode hex="05D3"/>
	<advance width="567"/>
	<outline>
		<contour>
			<point x="16" y="417" type="line"/>
			<point x="520" y="417" type="line"/>
			<point x="551" y="564" type="line"/>
			<point x="47" y="564" type="line"/>
		</contour>
		<contour>
			<point x="310" y="0" type="line"/>
			<point x="436" y="0" type="line"/>
			<point x="436" y="286" type="line"/>
			<point x="436" y="348"/>
			<point x="446" y="392"/>
			<point x="466" y="419" type="curve"/>
			<point x="350" y="419" type="line"/>
			<point x="327" y="390"/>
			<point x="310" y="347"/>
			<point x="310" y="272" type="curve"/>
		</contour>
	</outline>
</glyph>
<glyph name="heHe" format="1">
	<unicode hex="05D4"/>
	<advance width="691"/>
	<outline>
		<contour>
			<point x="479" y="0" type="line"/>
			<point x="606" y="0" type="line"/>
			<point x="606" y="362" type="line" smooth="yes"/>
			<point x="606" y="508"/>
			<point x="532" y="564"/>
			<point x="424" y="564" type="curve"/>
			<point x="102" y="564" type="line"/>
			<point x="71" y="417" type="line"/>
			<point x="347" y="417" type="line"/>
			<point x="428" y="417"/>
			<point x="479" y="383"/>
			<point x="479" y="269" type="curve" smooth="yes"/>
		</contour>
		<contour>
			<point x="98" y="0" type="line"/>
			<point x="224" y="0" type="line"/>
			<point x="224" y="320" type="line"/>
			<point x="98" y="320" type="line"/>
		</contour>
	</outline>
</glyph>
<glyph name="heVav" format="1">
	<unicode hex="05D5"/>
	<advance width="372"/>
	<outline>
		<contour>
			<point x="160" y="0" type="line"/>
			<point x="286" y="0" type="line"/>
			<point x="286" y="428" type="line" smooth="yes"/>
			<point x="286" y="515"/>
			<point x="249" y="548"/>
			<point x="126" y="564" type="curve" smooth="yes"/>
			<point x="34" y="576" type="line"/>
			<point x="3" y="429" type="line"/>
			<point x="85" y="417" type="line" smooth="yes"/>
			<point x="140" y="409"/>
			<point x="160" y="391"/>
			<point x="160" y="328" type="curve" smooth="yes"/>
		</contour>
	</outline>
</glyph>
<glyph name="heZayin" format="1">
	<unicode hex="05D6"/>
	<advance width="418"/>
	<outline>
		<contour>
			<point x="368" y="434" type="curve"/>
			<point x="399" y="566" type="line"/>
			<point x="271" y="566"/>
			<point x="134" y="563"/>
			<point x="44" y="576" type="curve"/>
			<point x="13" y="444" type="line"/>
			<point x="106" y="431"/>
			<point x="239" y="434"/>
		</contour>
		<contour>
			<point x="187" y="0" type="line"/>
			<point x="316" y="0" type="line"/>
			<point x="287" y="160" type="line" smooth="yes"/>
			<point x="273" y="233"/>
			<point x="259" y="288"/>
			<point x="259" y="332" type="curve" smooth="yes"/>
			<point x="259" y="388"/>
			<point x="270" y="422"/>
			<point x="297" y="437" type="curve"/>
			<point x="168" y="437" type="line"/>
			<point x="143" y="422"/>
			<point x="132" y="386"/>
			<point x="132" y="328" type="curve" smooth="yes"/>
			<point x="132" y="286"/>
			<point x="144" y="233"/>
			<point x="158" y="160" type="curve" smooth="yes"/>
		</contour>
	</outline>
</glyph>
<glyph name="heHet" format="1">
	<unicode hex="05D7"/>
	<advance width="718"/>
	<outline>
		<contour>
			<point x="506" y="0" type="line"/>
			<point x="632" y="0" type="line"/>
			<point x="632" y="362" type="line" smooth="yes"/>
			<point x="632" y="510"/>
			<point x="561" y="564"/>
			<point x="448" y="564" type="curve"/>
			<point x="92" y="564" type="line"/>
			<point x="61" y="417" type="line"/>
			<point x="372" y="417" type="line"/>
			<point x="455" y="417"/>
			<point x="506" y="382"/>
			<point x="506" y="269" type="curve" smooth="yes"/>
		</contour>
		<contour>
			<point x="98" y="0" type="line"/>
			<point x="224" y="0" type="line"/>
			<point x="224" y="283" type="line"/>
			<point x="224" y="344"/>
			<point x="234" y="392"/>
			<point x="254" y="419" type="curve"/>
			<point x="138" y="419" type="line"/>
			<point x="115" y="390"/>
			<point x="98" y="343"/>
			<point x="98" y="268" type="curve"/>
		</contour>
	</outline>
</glyph>
<glyph name="heTet" format="1">
	<unicode hex="05D8"/>
	<advance width="636"/>
	<outline>
		<contour>
			<point x="167" y="-12" type="line"/>
			<point x="395" y="8"/>
			<point x="595" y="196"/>
			<point x="595" y="422" type="curve" smooth="yes"/>
			<point x="595" y="538"/>
			<point x="538" y="576"/>
			<point x="422" y="576" type="curve" smooth="yes"/>
			<point x="402" y="576"/>
			<point x="373" y="575"/>
			<point x="345" y="570" type="curve"/>
			<point x="317" y="421" type="line"/>
			<point x="344" y="426"/>
			<point x="366" y="427"/>
			<point x="385" y="427" type="curve" smooth="yes"/>
			<point x="429" y="427"/>
			<point x="451" y="406"/>
			<point x="451" y="357" type="curve" smooth="yes"/>
			<point x="451" y="254"/>
			<point x="371" y="167"/>
			<point x="253" y="156" type="curve"/>
			<point x="145" y="570" type="line"/>
			<point x="18" y="539" type="line"/>
		</contour>
	</outline>
</glyph>
<glyph name="heYod" format="1">
	<unicode hex="05D9"/>
	<advance width="348"/>
	<outline>
		<contour>
			<point x="206" y="149" type="line"/>
			<point x="255" y="244"/>
			<point x="286" y="335"/>
			<point x="286" y="420" type="curve" smooth="yes"/>
			<point x="286" y="518"/>
			<point x="252" y="548"/>
			<point x="151" y="561" type="curve" smooth="yes"/>
			<point x="34" y="576" type="line"/>
			<point x="3" y="429" type="line"/>
			<point x="87" y="417" type="line" smooth="yes"/>
			<point x="149" y="409"/>
			<point x="160" y="397"/>
			<point x="160" y="354" type="curve" smooth="yes"/>
			<point x="160" y="311"/>
			<point x="129" y="246"/>
			<point x="96" y="190" type="curve"/>
		</contour>
	</outline>
</glyph>
<glyph name="heKafFin" format="1">
	<unicode hex="05DA"/>
	<advance width="590"/>
	<outline>
		<contour>
			<point x="378" y="-200" type="line"/>
			<point x="505" y="-200" type="line"/>
			<point x="505" y="362" type="line"/>
			<point x="505" y="509"/>
			<point x="431" y="564"/>
			<point x="322" y="564" type="curve" smooth="yes"/>
			<point x="48" y="564" type="line"/>
			<point x="18" y="417" type="line"/>
			<point x="246" y="417" type="line" smooth="yes"/>
			<point x="327" y="417"/>
			<point x="378" y="383"/>
			<point x="378" y="270" type="curve"/>
		</contour>
	</outline>
</glyph>
<glyph name="heKaf" format="1">
	<unicode hex="05DB"/>
	<advance width="622"/>
	<outline>
		<contour>
			<point x="40" y="-12" type="line"/>
			<point x="175" y="0"/>
			<point x="328" y="0"/>
			<point x="536" y="0" type="curve"/>
			<point x="536" y="302" type="line"/>
			<point x="536" y="483"/>
			<point x="442" y="564"/>
			<point x="284" y="564" type="curve" smooth="yes"/>
			<point x="96" y="564" type="line"/>
			<point x="66" y="417" type="line"/>
			<point x="218" y="417" type="line" smooth="yes"/>
			<point x="353" y="417"/>
			<point x="410" y="362"/>
			<point x="410" y="218" type="curve"/>
			<point x="410" y="139" type="line"/>
			<point x="274" y="137"/>
			<point x="159" y="135"/>
			<point x="70" y="127" type="curve"/>
		</contour>
	</outline>
</glyph>
<glyph name="heLamed" format="1">
	<unicode hex="05DC"/>
	<advance width="538"/>
	<outline>
		<contour>
			<point x="137" y="-12" type="line"/>
			<point x="412" y="99"/>
			<point x="496" y="264"/>
			<point x="496" y="422" type="curve" smooth="yes"/>
			<point x="496" y="521"/>
			<point x="447" y="564"/>
			<point x="295" y="564" type="curve" smooth="yes"/>
			<point x="175" y="564" type="line"/>
			<point x="175" y="738" type="line"/>
			<point x="48" y="738" type="line"/>
			<point x="48" y="417" type="line"/>
			<point x="264" y="417" type="line" smooth="yes"/>
			<point x="329" y="417"/>
			<point x="353" y="404"/>
			<point x="353" y="355" type="curve" smooth="yes"/>
			<point x="353" y="279"/>
			<point x="277" y="191"/>
			<point x="88" y="138" type="curve"/>
		</contour>
	</outline>
</glyph>
<glyph name="heMemFin" format="1">
	<unicode hex="05DD"/>
	<advance width="712"/>
	<outline>
		<contour>
			<point x="162" y="0" type="line"/>
			<point x="626" y="0" type="line"/>
			<point x="626" y="362" type="line" smooth="yes"/>
			<point x="626" y="511"/>
			<point x="555" y="564"/>
			<point x="444" y="564" type="curve"/>
			<point x="92" y="564" type="line"/>
			<point x="61" y="417" type="line"/>
			<point x="368" y="417" type="line"/>
			<point x="448" y="417"/>
			<point x="500" y="382"/>
			<point x="500" y="269" type="curve" smooth="yes"/>
			<point x="500" y="147" type="line"/>
			<point x="162" y="147" type="line"/>
		</contour>
		<contour>
			<point x="98" y="0" type="line"/>
			<point x="224" y="0" type="line"/>
			<point x="224" y="283" type="line"/>
			<point x="224" y="344"/>
			<point x="234" y="392"/>
			<point x="254" y="419" type="curve"/>
			<point x="138" y="419" type="line"/>
			<point x="115" y="390"/>
			<point x="98" y="343"/>
			<point x="98" y="268" type="curve"/>
		</contour>
	</outline>
</glyph>
<glyph name="heMem" format="1">
	<unicode hex="05DE"/>
	<advance width="756"/>
	<outline>
		<contour>
			<point x="350" y="-12" type="line"/>
			<point x="432" y="-1"/>
			<point x="546" y="0"/>
			<point x="662" y="0" type="curve"/>
			<point x="666" y="68"/>
			<point x="670" y="144"/>
			<point x="670" y="200" type="curve" smooth="yes"/>
			<point x="670" y="480"/>
			<point x="584" y="576"/>
			<point x="437" y="576" type="curve" smooth="yes"/>
			<point x="230" y="576"/>
			<point x="100" y="295"/>
			<point x="100" y="0" type="curve"/>
			<point x="227" y="0" type="line"/>
			<point x="227" y="224"/>
			<point x="306" y="427"/>
			<point x="419" y="427" type="curve" smooth="yes"/>
			<point x="493" y="427"/>
			<point x="540" y="372"/>
			<point x="540" y="200" type="curve" smooth="yes"/>
			<point x="540" y="183"/>
			<point x="538" y="165"/>
			<point x="537" y="147" type="curve"/>
			<point x="478" y="147"/>
			<point x="408" y="143"/>
			<point x="356" y="137" type="curve"/>
		</contour>
		<contour>
			<point x="162" y="323" type="curve"/>
			<point x="266" y="372" type="line"/>
			<point x="254" y="441"/>
			<point x="220" y="527"/>
			<point x="186" y="576" type="curve"/>
			<point x="62" y="531" type="line"/>
			<point x="105" y="476"/>
			<point x="150" y="382"/>
		</contour>
	</outline>
</glyph>
<glyph name="heNunFin" format="1">
	<unicode hex="05DF"/>
	<advance width="388"/>
	<outline>
		<contour>
			<point x="176" y="-200" type="line"/>
			<point x="303" y="-200" type="line"/>
			<point x="303" y="428" type="line" smooth="yes"/>
			<point x="303" y="515"/>
			<point x="261" y="546"/>
			<point x="126" y="564" type="curve" smooth="yes"/>
			<point x="34" y="576" type="line"/>
			<point x="3" y="429" type="line"/>
			<point x="85" y="417" type="line" smooth="yes"/>
			<point x="153" y="407"/>
			<point x="176" y="391"/>
			<point x="176" y="328" type="curve" smooth="yes"/>
		</contour>
	</outline>
</glyph>
<glyph name="heNun" format="1">
	<unicode hex="05E0"/>
	<advance width="458"/>
	<outline>
		<contour>
			<point x="48" y="-12" type="line"/>
			<point x="156" y="0"/>
			<point x="264" y="0"/>
			<point x="372" y="0" type="curve"/>
			<point x="372" y="425" type="line"/>
			<point x="371" y="512"/>
			<point x="335" y="542"/>
			<point x="218" y="559" type="curve"/>
			<point x="97" y="576" type="line"/>
			<point x="66" y="429" type="line"/>
			<point x="176" y="411" type="line" smooth="yes"/>
			<point x="227" y="403"/>
			<point x="246" y="385"/>
			<point x="246" y="323" type="curve" smooth="yes"/>
			<point x="246" y="147" type="line"/>
			<point x="180" y="146"/>
			<point x="116" y="142"/>
			<point x="54" y="135" type="curve"/>
		</contour>
	</outline>
</glyph>
<glyph name="heSamekh" format="1">
	<unicode hex="05E1"/>
	<advance width="698"/>
	<outline>
		<contour>
			<point x="240" y="-12" type="curve"/>
			<point x="463" y="9"/>
			<point x="656" y="196"/>
			<point x="656" y="424" type="curve" smooth="yes"/>
			<point x="656" y="523"/>
			<point x="607" y="564"/>
			<point x="455" y="564" type="curve" smooth="yes"/>
			<point x="50" y="564" type="line"/>
			<point x="20" y="417" type="line"/>
			<point x="424" y="417" type="line" smooth="yes"/>
			<point x="489" y="417"/>
			<point x="513" y="405"/>
			<point x="513" y="357" type="curve" smooth="yes"/>
			<point x="513" y="249"/>
			<point x="437" y="168"/>
			<point x="319" y="157" type="curve"/>
			<point x="282" y="216"/>
			<point x="247" y="301"/>
			<point x="247" y="357" type="curve" smooth="yes"/>
			<point x="247" y="395"/>
			<point x="259" y="417"/>
			<point x="279" y="452" type="curve"/>
			<point x="154" y="469" type="line"/>
			<point x="136" y="440"/>
			<point x="112" y="402"/>
			<point x="112" y="344" type="curve" smooth="yes"/>
			<point x="112" y="270"/>
			<point x="176" y="107"/>
		</contour>
	</outline>
</glyph>
<glyph name="heAyin" format="1">
	<unicode hex="05E2"/>
	<advance width="667"/>
	<outline>
		<contour>
			<point x="41" y="-32" type="line"/>
			<point x="90" y="-28"/>
			<point x="162" y="-21"/>
			<point x="242" y="-2" type="curve" smooth="yes"/>
			<point x="468" y="53"/>
			<point x="625" y="214"/>
			<point x="625" y="406" type="curve" smooth="yes"/>
			<point x="625" y="551"/>
			<point x="568" y="576"/>
			<point x="433" y="576" type="curve" smooth="yes"/>
			<point x="417" y="576"/>
			<point x="395" y="574"/>
			<point x="373" y="570" type="curve"/>
			<point x="344" y="421" type="line"/>
			<point x="368" y="425"/>
			<point x="388" y="427"/>
			<point x="404" y="427" type="curve" smooth="yes"/>
			<point x="458" y="427"/>
			<point x="482" y="413"/>
			<point x="482" y="357" type="curve" smooth="yes"/>
			<point x="482" y="254"/>
			<point x="396" y="175"/>
			<point x="271" y="143" type="curve" smooth="yes"/>
			<point x="198" y="123"/>
			<point x="121" y="120"/>
			<point x="72" y="115" type="curve"/>
		</contour>
		<contour>
			<point x="219" y="16" type="curve"/>
			<point x="342" y="38" type="line"/>
			<point x="318" y="226"/>
			<point x="251" y="440"/>
			<point x="191" y="570" type="curve"/>
			<point x="62" y="539" type="line"/>
			<point x="123" y="405"/>
			<point x="196" y="198"/>
		</contour>
	</outline>
</glyph>
<glyph name="hePeFin" format="1">
	<unicode hex="05E3"/>
	<advance width="614"/>
	<outline>
		<contour>
			<point x="401" y="-200" type="line"/>
			<point x="528" y="-200" type="line"/>
			<point x="528" y="300" type="line" smooth="yes"/>
			<point x="528" y="467"/>
			<point x="479" y="525"/>
			<point x="340" y="544" type="curve" smooth="yes"/>
			<point x="98" y="576" type="line"/>
			<point x="62" y="436"/>
			<point x="54" y="404"/>
			<point x="54" y="353" type="curve" smooth="yes"/>
			<point x="54" y="216"/>
			<point x="113" y="177"/>
			<point x="268" y="157" type="curve"/>
			<point x="308" y="302" type="line"/>
			<point x="210" y="313"/>
			<point x="184" y="329"/>
			<point x="184" y="372" type="curve" smooth="yes"/>
			<point x="184" y="386"/>
			<point x="187" y="396"/>
			<point x="194" y="421" type="curve"/>
			<point x="283" y="408" type="line" smooth="yes"/>
			<point x="370" y="396"/>
			<point x="401" y="372"/>
			<point x="401" y="291" type="curve"/>
		</contour>
	</outline>
</glyph>
<glyph name="hePe" format="1">
	<unicode hex="05E4"/>
	<advance width="644"/>
	<outline>
		<contour>
			<point x="48" y="-12" type="line"/>
			<point x="181" y="1"/>
			<point x="353" y="0"/>
			<point x="558" y="0" type="curve"/>
			<point x="558" y="300" type="line" smooth="yes"/>
			<point x="558" y="467"/>
			<point x="507" y="527"/>
			<point x="364" y="544" type="curve" smooth="yes"/>
			<point x="98" y="576" type="line"/>
			<point x="62" y="436"/>
			<point x="54" y="404"/>
			<point x="54" y="353" type="curve" smooth="yes"/>
			<point x="54" y="246"/>
			<point x="114" y="210"/>
			<point x="268" y="190" type="curve"/>
			<point x="308" y="335" type="line"/>
			<point x="211" y="346"/>
			<point x="184" y="353"/>
			<point x="184" y="380" type="curve" smooth="yes"/>
			<point x="184" y="390"/>
			<point x="185" y="397"/>
			<point x="191" y="421" type="curve"/>
			<point x="282" y="409" type="line" smooth="yes"/>
			<point x="392" y="394"/>
			<point x="432" y="372"/>
			<point x="432" y="292" type="curve" smooth="yes"/>
			<point x="432" y="147" type="line"/>
			<point x="286" y="145"/>
			<point x="148" y="145"/>
			<point x="54" y="135" type="curve"/>
		</contour>
	</outline>
</glyph>
<glyph name="heTsadi" format="1">
	<unicode hex="05E6"/>
	<advance width="679"/>
	<outline>
		<contour>
			<point x="458" y="203" type="line"/>
			<point x="540" y="295"/>
			<point x="584" y="372"/>
			<point x="584" y="460" type="curve" smooth="yes"/>
			<point x="584" y="544"/>
			<point x="531" y="576"/>
			<point x="418" y="576" type="curve" smooth="yes"/>
			<point x="398" y="576"/>
			<point x="374" y="576"/>
			<point x="342" y="570" type="curve"/>
			<point x="338" y="421" type="line"/>
			<point x="372" y="427"/>
			<point x="394" y="427"/>
			<point x="414" y="427" type="curve" smooth="yes"/>
			<point x="443" y="427"/>
			<point x="457" y="417"/>
			<point x="457" y="388" type="curve" smooth="yes"/>
			<point x="457" y="350"/>
			<point x="431" y="307"/>
			<point x="362" y="252" type="curve"/>
		</contour>
		<contour>
			<point x="48" y="-12" type="line"/>
			<point x="190" y="1"/>
			<point x="361" y="0"/>
			<point x="571" y="0" type="curve"/>
			<point x="596" y="147" type="line"/>
			<point x="378" y="144"/>
			<point x="196" y="151"/>
			<point x="54" y="135" type="curve"/>
		</contour>
		<contour>
			<point x="485" y="68" type="curve"/>
			<point x="596" y="147" type="line"/>
			<point x="399" y="262"/>
			<point x="230" y="425"/>
			<point x="130" y="576" type="curve"/>
			<point x="18" y="498" type="line"/>
			<point x="120" y="341"/>
			<point x="293" y="176"/>
		</contour>
	</outline>
</glyph>
<glyph name="heQof" format="1">
	<unicode hex="05E7"/>
	<advance width="649"/>
	<outline>
		<contour>
			<point x="330" y="-12" type="line"/>
			<point x="537" y="109"/>
			<point x="608" y="264"/>
			<point x="608" y="422" type="curve" smooth="yes"/>
			<point x="608" y="521"/>
			<point x="558" y="564"/>
			<point x="406" y="564" type="curve"/>
			<point x="102" y="564" type="line"/>
			<point x="71" y="417" type="line"/>
			<point x="376" y="417" type="line"/>
			<point x="440" y="417"/>
			<point x="464" y="404"/>
			<point x="464" y="355" type="curve" smooth="yes"/>
			<point x="464" y="279"/>
			<point x="403" y="209"/>
			<point x="281" y="138" type="curve"/>
		</contour>
		<contour>
			<point x="98" y="-200" type="line"/>
			<point x="224" y="-200" type="line"/>
			<point x="224" y="320" type="line"/>
			<point x="98" y="320" type="line"/>
		</contour>
	</outline>
</glyph>
<glyph name="heResh" format="1">
	<unicode hex="05E8"/>
	<advance width="574"/>
	<outline>
		<contour>
			<point x="361" y="0" type="line"/>
			<point x="488" y="0" type="line"/>
			<point x="488" y="362" type="line" smooth="yes"/>
			<point x="488" y="508"/>
			<point x="414" y="564"/>
			<point x="306" y="564" type="curve"/>
			<point x="47" y="564" type="line"/>
			<point x="16" y="417" type="line"/>
			<point x="230" y="417" type="line"/>
			<point x="310" y="417"/>
			<point x="361" y="383"/>
			<point x="361" y="269" type="curve" smooth="yes"/>
		</contour>
	</outline>
</glyph>
<glyph name="heShin" format="1">
	<unicode hex="05E9"/>
	<advance width="751"/>
	<outline>
		<contour>
			<point x="195" y="-12" type="line"/>
			<point x="506" y="2"/>
			<point x="713" y="193"/>
			<point x="713" y="431" type="curve" smooth="yes"/>
			<point x="713" y="523"/>
			<point x="682" y="576"/>
			<point x="592" y="576" type="curve" smooth="yes"/>
			<point x="574" y="576"/>
			<point x="550" y="575"/>
			<point x="525" y="570" type="curve"/>
			<point x="496" y="421" type="line"/>
			<point x="510" y="423"/>
			<point x="521" y="427"/>
			<point x="530" y="427" type="curve" smooth="yes"/>
			<point x="556" y="427"/>
			<point x="570" y="416"/>
			<point x="570" y="378" type="curve" smooth="yes"/>
			<point x="570" y="253"/>
			<point x="462" y="161"/>
			<point x="281" y="149" type="curve"/>
			<point x="145" y="570" type="line"/>
			<point x="18" y="539" type="line"/>
		</contour>
		<contour>
			<point x="242" y="186" type="line"/>
			<point x="409" y="249"/>
			<point x="462" y="344"/>
			<point x="462" y="459" type="curve" smooth="yes"/>
			<point x="462" y="529"/>
			<point x="431" y="576"/>
			<point x="342" y="576" type="curve" smooth="yes"/>
			<point x="324" y="576"/>
			<point x="301" y="575"/>
			<point x="276" y="570" type="curve"/>
			<point x="247" y="421" type="line"/>
			<point x="261" y="423"/>
			<point x="271" y="427"/>
			<point x="280" y="427" type="curve" smooth="yes"/>
			<point x="306" y="427"/>
			<point x="318" y="417"/>
			<point x="318" y="391" type="curve" smooth="yes"/>
			<point x="318" y="355"/>
			<point x="296" y="310"/>
			<point x="213" y="278" type="curve"/>
		</contour>
	</outline>
</glyph>
<glyph name="heTav" format="1">
	<unicode hex="05EA"/>
	<advance width="765"/>
	<outline>
		<contour>
			<point x="44" y="-12" type="line"/>
			<point x="112" y="-4"/>
			<point x="251" y="0"/>
			<point x="297" y="0" type="curve"/>
			<point x="289" y="130"/>
			<point x="283" y="240"/>
			<point x="283" y="332" type="curve" smooth="yes"/>
			<point x="283" y="412"/>
			<point x="299" y="483"/>
			<point x="323" y="518" type="curve"/>
			<point x="196" y="518" type="line"/>
			<point x="173" y="483"/>
			<point x="156" y="414"/>
			<point x="156" y="334" type="curve" smooth="yes"/>
			<point x="156" y="283"/>
			<point x="159" y="223"/>
			<point x="165" y="147" type="curve"/>
			<point x="146" y="145"/>
			<point x="101" y="140"/>
			<point x="74" y="135" type="curve"/>
		</contour>
		<contour>
			<point x="552" y="0" type="line"/>
			<point x="679" y="0" type="line"/>
			<point x="679" y="362" type="line" smooth="yes"/>
			<point x="679" y="511"/>
			<point x="609" y="564"/>
			<point x="497" y="564" type="curve"/>
			<point x="102" y="564" type="line"/>
			<point x="72" y="417" type="line"/>
			<point x="421" y="417" type="line"/>
			<point x="500" y="417"/>
			<point x="552" y="382"/>
			<point x="552" y="269" type="curve" smooth="yes"/>
		</contour>
	</outline>
</glyph>
<glyph name="guillemotleft.lat" format="1">
	<advance width="480"/>
	<outline>
		<contour>
			<point x="183" y="56" type="line"/>
			<point x="238" y="100" type="line"/>
			<point x="127" y="252" type="line"/>
			<point x="238" y="404" type="line"/>
			<point x="183" y="448" type="line"/>
			<point x="49" y="304" type="line"/>
			<point x="49" y="200" type="line"/>
		</contour>
		<contour>
			<point x="372" y="56" type="line"/>
			<point x="426" y="100" type="line"/>
			<point x="315" y="252" type="line"/>
			<point x="426" y="404" type="line"/>
			<point x="372" y="448" type="line"/>
			<point x="237" y="304" type="line"/>
			<point x="237" y="200" type="line"/>
		</contour>
	</outline>
</glyph>
<glyph name="guillemotright.lat" format="1">
	<advance width="480"/>
	<outline>
		<contour>
			<point x="109" y="56" type="line"/>
			<point x="243" y="200" type="line"/>
			<point x="243" y="304" type="line"/>
			<point x="109" y="448" type="line"/>
			<point x="54" y="404" type="line"/>
			<point x="165" y="252" type="line"/>
			<point x="54" y="100" type="line"/>
		</contour>
		<contour>
			<point x="297" y="56" type="line"/>
			<point x="432" y="200" type="line"/>
			<point x="432" y="304" type="line"/>
			<point x="297" y="448" type="line"/>
			<point x="242" y="404" type="line"/>
			<point x="353" y="252" type="line"/>
			<point x="242" y="100" type="line"/>
		</contour>
	</outline>
</glyph>
<glyph name="periodcentered.lat" format="1">
	<advance width="300"/>
	<outline>
		<contour>
			<point x="150" y="228" type="curve" smooth="yes"/>
			<point x="201" y="228"/>
			<point x="239" y="268"/>
			<point x="239" y="320" type="curve" smooth="yes"/>
			<point x="239" y="373"/>
			<point x="201" y="413"/>
			<point x="150" y="413" type="curve" smooth="yes"/>
			<point x="99" y="413"/>
			<point x="61" y="373"/>
			<point x="61" y="320" type="curve" smooth="yes"/>
			<point x="61" y="268"/>
			<point x="99" y="228"/>
		</contour>
	</outline>
</glyph>
<glyph name="quotesinglbase.lat" format="1">
	<advance width="300"/>
	<outline>
		<contour>
			<point x="103" y="-169" type="line"/>
			<point x="199" y="-122"/>
			<point x="246" y="-49"/>
			<point x="246" y="45" type="curve" smooth="yes"/>
			<point x="246" y="128"/>
			<point x="213" y="176"/>
			<point x="152" y="176" type="curve" smooth="yes"/>
			<point x="107" y="176"/>
			<point x="75" y="144"/>
			<point x="75" y="94" type="curve" smooth="yes"/>
			<point x="75" y="49"/>
			<point x="109" y="21"/>
			<point x="152" y="21" type="curve" smooth="yes"/>
			<point x="172" y="21"/>
			<point x="191" y="30"/>
			<point x="206" y="42" type="curve"/>
			<point x="157" y="109" type="line"/>
			<point x="161" y="23" type="line"/>
			<point x="161" y="-37"/>
			<point x="131" y="-75"/>
			<point x="71" y="-105" type="curve"/>
		</contour>
	</outline>
</glyph>
